PathFileType	3	(X/Y/Z)	D:\minhoCalibration\240510\subject3_KPNP\preferred\preferred18.trc
DataRate	CameraRate	NumFrames	NumMarkers	Units	OrigDataRate	OrigDataStartFrame	OrigNumFrames
200.0	200.0	12	10	mm	200.0	163	116	
Frame#	Time	Left_Ankle_Outer1			Left_Ankle_Inner1			Left_Knee_Outer1			Left_Knee_Inner1			Left_Wrist1			Right_Wrist1			Right_Knee_Inner1			Right_Knee_Outer1			Right_Ankle_Inner1			Right_Ankle_Outer1			
		X1	Y1	Z1	X2	Y2	Z2	X3	Y3	Z3	X4	Y4	Z4	X5	Y5	Z5	X6	Y6	Z6	X7	Y7	Z7	X8	Y8	Z8	X9	Y9	Z9	X10	Y10	Z10	
163	0.805	-348.71869	134.38126	-510.09875	-402.40088	152.71555	-490.69284	-199.56549	539.45331	-446.396	-271.8494	556.66443	-375.3497	-198.9622	906.78125	-701.09509	-380.90591	1133.0881	-458.77142	-308.02716	949.55103	-72.51265	-314.48676	1062.4851	-97.728081	-694.38257	882.76483	114.22436	-702.88184	984.54626	136.32823
164	0.81	-347.72202	134.26053	-509.62872	-401.59741	152.43436	-490.50668	-199.39452	539.48022	-444.48669	-272.28265	556.47614	-374.40985	-202.00082	903.94342	-700.83221	-378.48593	1134.7517	-462.06332	-302.36111	959.86548	-73.529251	-306.53699	1068.722	-103.88497	-665.99902	908.12604	158.60144	-670.88965	1010.2686	175.36087
165	0.815	-346.43988	134.10185	-509.62509	-400.60913	151.89818	-490.40607	-199.02333	539.41498	-442.75037	-272.06247	556.19012	-372.73068	-204.73795	901.15161	-699.88245	-376.69635	1136.0261	-465.49695	-298.12244	969.48999	-74.738655	-301.87289	1073.3962	-109.24866	-631.10126	933.99518	203.31152	-634.71124	1036.9747	211.34897
166	0.82	-345.64532	133.80331	-509.40228	-399.85083	151.61864	-490.73398	-198.81404	539.16193	-441.11038	-272.2449	556.07275	-371.29886	-207.18394	898.46167	-698.35016	-375.40097	1136.7894	-469.00272	-295.33105	978.09186	-76.18409	-297.59402	1077.5031	-114.82325	-591.26099	959.89331	242.98994	-594.35846	1063.116	243.89815
167	0.825	-345.19601	132.99881	-509.48984	-399.07541	151.25388	-491.09338	-198.48894	538.91656	-439.5513	-272.62985	555.85718	-369.75348	-209.29213	895.9458	-696.36884	-374.63049	1137.7401	-472.40918	-293.95517	985.53131	-77.858215	-296.46768	1080.7168	-119.05215	-547.57025	984.86835	277.51807	-550.64661	1088.2356	271.17337
168	0.83	-344.15994	132.7641	-509.77124	-398.36819	150.78618	-491.47202	-198.32637	538.42108	-438.25958	-272.46555	555.00995	-369.20477	-211.15001	893.75397	-694.08301	-374.51328	1139.1184	-474.83432	-293.66522	991.8858	-79.261307	-297.20261	1083.6544	-122.43586	-500.44958	1008.2948	305.71436	-504.18216	1111.5188	291.68915
169	0.835	-344.9689	131.45671	-509.20267	-397.80243	150.43683	-491.69424	-198.1449	537.97485	-437.1763	-272.1001	554.21967	-367.89893	-213.03873	891.93683	-691.29651	-374.93445	1141.0247	-476.40878	-293.60883	997.48303	-80.320236	-299.4223	1086.5815	-125.49281	-453.75125	1027.6899	320.12418	-454.7594	1131.3044	305.39407
170	0.84	-343.70584	131.69385	-509.92352	-397.42151	150.09015	-492.03171	-198.27029	537.26886	-436.17017	-271.77911	553.62366	-365.94482	-214.73422	890.58453	-688.15082	-376.41605	1142.8179	-477.09573	-293.26758	1002.8674	-81.77356	-304.39145	1091.642	-127.2613	-415.45367	1047.3444	325.82098	-415.79874	1151.0704	307.14102
171	0.845	-343.5864	131.46249	-510.15811	-397.32043	149.81657	-492.30304	-198.15794	536.75635	-435.35541	-271.74957	552.48145	-365.03705	-216.07812	889.88287	-684.60229	-377.98376	1144.6273	-477.32645	-292.25235	1007.6449	-83.84034	-310.84842	1099.0137	-128.45215	-413.01801	1065.8143	329.07495	-391.38107	1165.2159	301.798
172	0.85	-343.69318	131.2663	-510.53043	-397.37326	149.63225	-492.54071	-198.37271	535.99927	-434.44202	-271.42465	551.15283	-364.14435	-217.20032	889.70001	-680.50635	-380.47339	1145.7732	-476.83014	-289.32498	1010.6039	-85.183167	-316.61417	1106.0773	-129.78606	-408.37372	1076.8138	329.23279	-382.40002	1171.8497	295.99521
173	0.855	-343.78549	131.19458	-510.77097	-397.49927	149.56114	-492.95142	-198.61601	535.43195	-433.17792	-271.0575	550.35889	-362.26382	-217.79335	889.94952	-676.05237	-382.59488	1146.3787	-475.95206	-284.43079	1012.8472	-85.330032	-322.95386	1111.4684	-130.55498	-408.74109	1079.2129	324.40515	-380.65201	1178.4026	295.77884
174	0.86	-343.75095	131.2225	-510.80597	-397.63516	149.47951	-493.08151	-199.14334	535.06903	-431.58618	-270.74878	549.36707	-359.44058	-217.87927	890.19397	-671.14325	-385.9469	1146.6597	-474.2164	-279.24701	1016.515	-85.321022	-325.78967	1116.3805	-132.10883	-407.92053	1073.6147	318.19278	-383.14053	1176.7909	298.77368
